<svg width="320" height="320" viewBox="0 0 320 320" fill="none" xmlns="http://www.w3.org/2000/svg">
<rect width="320" height="320" rx="160" fill="#D9D9D9"/>
<path d="M265.726 208.246C255.466 190.932 232.079 185.147 214.908 195.657C211.113 197.986 207.894 200.891 205.276 204.202L200.29 210.092L196.521 203.561C196.089 202.802 196.338 201.847 197.097 201.402L201.311 198.968C208.483 194.832 212.317 186.168 209.53 178.381C205.852 168.147 194.126 164.169 185.161 169.338L180.947 171.772C172.192 176.824 164.509 190.723 169.574 199.478L196.861 246.749H196.9C197.136 247.181 197.372 247.613 197.62 248.058C207.776 265.634 234.919 268.958 252.508 258.816C270.215 248.594 276.196 225.875 265.739 208.233L265.726 208.246Z" fill="#F9733A"/>
<path d="M55.1651 208.246C65.4255 190.932 88.8124 185.147 105.983 195.657C109.778 197.986 112.998 200.891 115.615 204.202L120.601 210.092L124.37 203.561C124.802 202.802 124.554 201.847 123.795 201.402L119.58 198.968C112.409 194.832 108.574 186.168 111.362 178.381C115.039 168.147 126.765 164.169 135.73 169.338L139.944 171.772C148.7 176.824 156.382 190.723 151.317 199.478L124.03 246.749H123.991C123.755 247.181 123.52 247.613 123.271 248.058C113.115 265.634 85.9725 268.958 68.3832 258.816C50.6762 248.594 44.6953 225.875 55.152 208.233L55.1651 208.246Z" fill="#F9733A"/>
<path d="M265.726 111.257C255.466 128.571 232.079 134.356 214.908 123.847C211.113 121.517 207.894 118.612 205.276 115.301L200.29 109.412L196.521 115.942C196.089 116.701 196.338 117.657 197.097 118.102L201.311 120.536C208.483 124.671 212.317 133.335 209.53 141.122C205.852 151.356 194.126 155.335 185.161 150.165L180.947 147.731C172.192 142.68 164.509 128.781 169.574 120.026L196.861 72.7544H196.9C197.136 72.3225 197.372 71.8907 197.62 71.4457C207.776 53.8695 234.919 50.5454 252.508 60.688C270.215 70.9091 276.196 93.6286 265.739 111.27L265.726 111.257Z" fill="#F9733A"/>
<path d="M55.1651 111.257C65.4255 128.571 88.8124 134.356 105.983 123.847C109.778 121.517 112.998 118.612 115.615 115.301L120.601 109.412L124.37 115.942C124.802 116.701 124.554 117.657 123.795 118.102L119.58 120.536C112.409 124.671 108.574 133.335 111.362 141.122C115.039 151.356 126.765 155.335 135.73 150.165L139.944 147.731C148.7 142.68 156.382 128.781 151.317 120.026L124.03 72.7544H123.991C123.755 72.3225 123.52 71.8907 123.271 71.4457C113.115 53.8695 85.9725 50.5454 68.3832 60.688C50.6762 70.9091 44.6953 93.6286 55.152 111.27L55.1651 111.257Z" fill="#F9733A"/>
</svg>
